P3
41 21
255
0	0	0	0	0	0	0	0	0	0	0	0	0	0	0	0	0	0	0	0	0	0	0	0	0	0	0	0	0	0	0	0	0	0	0	0	0	0	0	0	0	0	0	0	0	0	0	0	0	0	0	0	0	0	0	0	0	0	0	0	0	0	0	0	0	0	0	0	0	0	0	0	0	0	0	0	0	0	0	0	0	0	0	0	0	0	0	0	0	0	0	0	0	0	0	0	0	0	0	0	0	0	0	0	0	0	0	0	0	0	0	0	0	0	0	0	0	0	0	0	0	0	0
0	0	0	255	255	0	223	255	0	191	255	0	159	255	0	127	255	0	95	255	0	63	255	0	31	255	0	0	255	0	0	0	0	0	255	0	0	255	31	0	255	63	0	255	95	0	255	127	0	255	159	0	255	191	0	255	223	0	255	255	0	0	0	0	0	255	31	0	255	63	0	255	95	0	255	127	0	255	159	0	255	191	0	255	223	0	255	255	0	255	0	0	0	255	0	255	255	0	223	255	0	191	255	0	159	255	0	127	255	0	95	255	0	63	255	0	31	255	0	0	0	0	0
0	0	0	255	223	0	223	223	0	191	223	0	159	223	0	127	223	0	95	223	0	63	223	0	31	223	0	0	223	0	0	0	0	0	223	0	0	223	31	0	223	63	0	223	95	0	223	127	0	223	159	0	223	191	0	223	223	0	223	255	0	0	0	0	31	255	31	31	255	63	31	255	95	31	255	127	31	255	159	31	255	191	31	255	223	31	255	255	31	255	0	0	0	255	31	255	255	31	223	255	31	191	255	31	159	255	31	127	255	31	95	255	31	63	255	31	31	255	31	0	0	0	0
0	0	0	255	191	0	223	191	0	191	191	0	159	191	0	127	191	0	95	191	0	63	191	0	31	191	0	0	191	0	0	0	0	0	191	0	0	191	31	0	191	63	0	191	95	0	191	127	0	191	159	0	191	191	0	191	223	0	191	255	0	0	0	0	63	255	31	63	255	63	63	255	95	63	255	127	63	255	159	63	255	191	63	255	223	63	255	255	63	255	0	0	0	255	63	255	255	63	223	255	63	191	255	63	159	255	63	127	255	63	95	255	63	63	255	63	31	255	63	0	0	0	0
0	0	0	255	159	0	223	159	0	191	159	0	159	159	0	127	159	0	95	159	0	63	159	0	31	159	0	0	159	0	0	0	0	0	159	0	0	159	31	0	159	63	0	159	95	0	159	127	0	159	159	0	159	191	0	159	223	0	159	255	0	0	0	0	95	255	31	95	255	63	95	255	95	95	255	127	95	255	159	95	255	191	95	255	223	95	255	255	95	255	0	0	0	255	95	255	255	95	223	255	95	191	255	95	159	255	95	127	255	95	95	255	95	63	255	95	31	255	95	0	0	0	0
0	0	0	255	127	0	223	127	0	191	127	0	159	127	0	127	127	0	95	127	0	63	127	0	31	127	0	0	127	0	0	0	0	0	127	0	0	127	31	0	127	63	0	127	95	0	127	127	0	127	159	0	127	191	0	127	223	0	127	255	0	0	0	0	127	255	31	127	255	63	127	255	95	127	255	127	127	255	159	127	255	191	127	255	223	127	255	255	127	255	0	0	0	255	127	255	255	127	223	255	127	191	255	127	159	255	127	127	255	127	95	255	127	63	255	127	31	255	127	0	0	0	0
0	0	0	255	95	0	223	95	0	191	95	0	159	95	0	127	95	0	95	95	0	63	95	0	31	95	0	0	95	0	0	0	0	0	95	0	0	95	31	0	95	63	0	95	95	0	95	127	0	95	159	0	95	191	0	95	223	0	95	255	0	0	0	0	159	255	31	159	255	63	159	255	95	159	255	127	159	255	159	159	255	191	159	255	223	159	255	255	159	255	0	0	0	255	159	255	255	159	223	255	159	191	255	159	159	255	159	127	255	159	95	255	159	63	255	159	31	255	159	0	0	0	0
0	0	0	255	63	0	223	63	0	191	63	0	159	63	0	127	63	0	95	63	0	63	63	0	31	63	0	0	63	0	0	0	0	0	63	0	0	63	31	0	63	63	0	63	95	0	63	127	0	63	159	0	63	191	0	63	223	0	63	255	0	0	0	0	191	255	31	191	255	63	191	255	95	191	255	127	191	255	159	191	255	191	191	255	223	191	255	255	191	255	0	0	0	255	191	255	255	191	223	255	191	191	255	191	159	255	191	127	255	191	95	255	191	63	255	191	31	255	191	0	0	0	0
0	0	0	255	31	0	223	31	0	191	31	0	159	31	0	127	31	0	95	31	0	63	31	0	31	31	0	0	31	0	0	0	0	0	31	0	0	31	31	0	31	63	0	31	95	0	31	127	0	31	159	0	31	191	0	31	223	0	31	255	0	0	0	0	223	255	31	223	255	63	223	255	95	223	255	127	223	255	159	223	255	191	223	255	223	223	255	255	223	255	0	0	0	255	223	255	255	223	223	255	223	191	255	223	159	255	223	127	255	223	95	255	223	63	255	223	31	255	223	0	0	0	0
0	0	0	255	0	0	223	0	0	191	0	0	159	0	0	127	0	0	95	0	0	63	0	0	31	0	0	0	0	0	0	0	0	0	0	0	0	0	31	0	0	63	0	0	95	0	0	127	0	0	159	0	0	191	0	0	223	0	0	255	0	0	0	0	255	255	31	255	255	63	255	255	95	255	255	127	255	255	159	255	255	191	255	255	223	255	255	255	255	255	0	0	0	255	255	255	255	255	223	255	255	191	255	255	159	255	255	127	255	255	95	255	255	63	255	255	31	255	255	0	0	0	0
0	0	0	0	0	0	0	0	0	0	0	0	0	0	0	0	0	0	0	0	0	0	0	0	0	0	0	0	0	0	0	0	0	0	0	0	0	0	0	0	0	0	0	0	0	0	0	0	0	0	0	0	0	0	0	0	0	0	0	0	0	0	0	0	0	0	0	0	0	0	0	0	0	0	0	0	0	0	0	0	0	0	0	0	0	0	0	0	0	0	0	0	0	0	0	0	0	0	0	0	0	0	0	0	0	0	0	0	0	0	0	0	0	0	0	0	0	0	0	0	0	0	0
0	0	0	255	0	0	223	0	0	191	0	0	159	0	0	127	0	0	95	0	0	63	0	0	31	0	0	0	0	0	0	0	0	0	0	0	0	0	0	0	0	0	0	0	0	0	0	0	0	0	0	0	0	0	0	0	0	0	0	0	0	0	0	0	255	255	31	255	255	63	255	255	95	255	255	127	255	255	159	255	255	191	255	255	223	255	255	255	255	255	0	0	0	0	0	0	0	0	0	0	0	0	0	0	0	0	0	0	0	0	0	0	0	0	0	0	0	0	0	0	0	0	0
0	0	0	255	0	31	223	0	31	191	0	31	159	0	31	127	0	31	95	0	31	63	0	31	31	0	31	0	0	31	0	0	0	0	0	0	0	0	0	0	0	0	0	0	0	0	0	0	0	0	0	0	0	0	0	0	0	0	0	0	0	0	0	0	255	223	31	255	223	63	255	223	95	255	223	127	255	223	159	255	223	191	255	223	223	255	223	255	255	223	0	0	0	0	0	0	0	0	0	0	0	0	0	0	0	0	0	0	0	0	0	0	0	0	0	0	0	0	0	0	0	0	0
0	0	0	255	0	63	223	0	63	191	0	63	159	0	63	127	0	63	95	0	63	63	0	63	31	0	63	0	0	63	0	0	0	0	0	0	0	0	0	0	0	0	0	0	0	0	0	0	0	0	0	0	0	0	0	0	0	0	0	0	0	0	0	0	255	191	31	255	191	63	255	191	95	255	191	127	255	191	159	255	191	191	255	191	223	255	191	255	255	191	0	0	0	0	0	0	0	0	0	0	0	0	0	0	0	0	0	0	0	0	0	0	0	0	0	0	0	0	0	0	0	0	0
0	0	0	255	0	95	223	0	95	191	0	95	159	0	95	127	0	95	95	0	95	63	0	95	31	0	95	0	0	95	0	0	0	0	0	0	0	0	0	0	0	0	0	0	0	0	0	0	0	0	0	0	0	0	0	0	0	0	0	0	0	0	0	0	255	159	31	255	159	63	255	159	95	255	159	127	255	159	159	255	159	191	255	159	223	255	159	255	255	159	0	0	0	0	0	0	0	0	0	0	0	0	0	0	0	0	0	0	0	0	0	0	0	0	0	0	0	0	0	0	0	0	0
0	0	0	255	0	127	223	0	127	191	0	127	159	0	127	127	0	127	95	0	127	63	0	127	31	0	127	0	0	127	0	0	0	0	0	0	0	0	0	0	0	0	0	0	0	0	0	0	0	0	0	0	0	0	0	0	0	0	0	0	0	0	0	0	255	127	31	255	127	63	255	127	95	255	127	127	255	127	159	255	127	191	255	127	223	255	127	255	255	127	0	0	0	0	0	0	0	0	0	0	0	0	0	0	0	0	0	0	0	0	0	0	0	0	0	0	0	0	0	0	0	0	0
0	0	0	255	0	159	223	0	159	191	0	159	159	0	159	127	0	159	95	0	159	63	0	159	31	0	159	0	0	159	0	0	0	0	0	0	0	0	0	0	0	0	0	0	0	0	0	0	0	0	0	0	0	0	0	0	0	0	0	0	0	0	0	0	255	95	31	255	95	63	255	95	95	255	95	127	255	95	159	255	95	191	255	95	223	255	95	255	255	95	0	0	0	0	0	0	0	0	0	0	0	0	0	0	0	0	0	0	0	0	0	0	0	0	0	0	0	0	0	0	0	0	0
0	0	0	255	0	191	223	0	191	191	0	191	159	0	191	127	0	191	95	0	191	63	0	191	31	0	191	0	0	191	0	0	0	0	0	0	0	0	0	0	0	0	0	0	0	0	0	0	0	0	0	0	0	0	0	0	0	0	0	0	0	0	0	0	255	63	31	255	63	63	255	63	95	255	63	127	255	63	159	255	63	191	255	63	223	255	63	255	255	63	0	0	0	0	0	0	0	0	0	0	0	0	0	0	0	0	0	0	0	0	0	0	0	0	0	0	0	0	0	0	0	0	0
0	0	0	255	0	223	223	0	223	191	0	223	159	0	223	127	0	223	95	0	223	63	0	223	31	0	223	0	0	223	0	0	0	0	0	0	0	0	0	0	0	0	0	0	0	0	0	0	0	0	0	0	0	0	0	0	0	0	0	0	0	0	0	0	255	31	31	255	31	63	255	31	95	255	31	127	255	31	159	255	31	191	255	31	223	255	31	255	255	31	0	0	0	0	0	0	0	0	0	0	0	0	0	0	0	0	0	0	0	0	0	0	0	0	0	0	0	0	0	0	0	0	0
0	0	0	255	0	255	223	0	255	191	0	255	159	0	255	127	0	255	95	0	255	63	0	255	31	0	255	0	0	255	0	0	0	0	0	0	0	0	0	0	0	0	0	0	0	0	0	0	0	0	0	0	0	0	0	0	0	0	0	0	0	0	0	0	255	0	31	255	0	63	255	0	95	255	0	127	255	0	159	255	0	191	255	0	223	255	0	255	255	0	0	0	0	0	0	0	0	0	0	0	0	0	0	0	0	0	0	0	0	0	0	0	0	0	0	0	0	0	0	0	0	0	0
0	0	0	0	0	0	0	0	0	0	0	0	0	0	0	0	0	0	0	0	0	0	0	0	0	0	0	0	0	0	0	0	0	0	0	0	0	0	0	0	0	0	0	0	0	0	0	0	0	0	0	0	0	0	0	0	0	0	0	0	0	0	0	0	0	0	0	0	0	0	0	0	0	0	0	0	0	0	0	0	0	0	0	0	0	0	0	0	0	0	0	0	0	0	0	0	0	0	0	0	0	0	0	0	0	0	0	0	0	0	0	0	0	0	0	0	0	0	0	0	0	0	0